<svg width="14" height="13" viewBox="0 0 14 13" fill="none" xmlns="http://www.w3.org/2000/svg">
<path d="M6.64033 8.125C6.64033 7.7898 6.50717 7.46832 6.27015 7.2313C6.03312 6.99427 5.71165 6.86111 5.37644 6.86111H3.932C3.5968 6.86111 3.27532 6.99427 3.0383 7.2313C2.80127 7.46832 2.66811 7.7898 2.66811 8.125V9.56944C2.66811 10.2671 3.23433 10.8333 3.932 10.8333H5.37644C5.71165 10.8333 6.03312 10.7002 6.27015 10.4631C6.50717 10.2261 6.64033 9.90465 6.64033 9.56944V8.125ZM3.932 7.94444H5.37644C5.42433 7.94444 5.47026 7.96347 5.50412 7.99733C5.53798 8.03119 5.557 8.07711 5.557 8.125V9.56944C5.557 9.61733 5.53798 9.66326 5.50412 9.69712C5.47026 9.73098 5.42433 9.75 5.37644 9.75H3.932C3.88411 9.75 3.83819 9.73098 3.80433 9.69712C3.77047 9.66326 3.75144 9.61733 3.75144 9.56944V8.125C3.75144 8.07711 3.77047 8.03119 3.80433 7.99733C3.83819 7.96347 3.88411 7.94444 3.932 7.94444ZM11.3333 8.125C11.3333 7.7898 11.2002 7.46832 10.9631 7.2313C10.7261 6.99427 10.4046 6.86111 10.0694 6.86111H8.625C8.2898 6.86111 7.96832 6.99427 7.7313 7.2313C7.49427 7.46832 7.36111 7.7898 7.36111 8.125V9.56944C7.36111 10.2671 7.92661 10.8333 8.625 10.8333H10.0694C10.4046 10.8333 10.7261 10.7002 10.9631 10.4631C11.2002 10.2261 11.3333 9.90465 11.3333 9.56944V8.125ZM8.625 7.94444H10.0694C10.1173 7.94444 10.1633 7.96347 10.1971 7.99733C10.231 8.03119 10.25 8.07711 10.25 8.125V9.56944C10.25 9.61733 10.231 9.66326 10.1971 9.69712C10.1633 9.73098 10.1173 9.75 10.0694 9.75H8.625C8.57711 9.75 8.53119 9.73098 8.49733 9.69712C8.46347 9.66326 8.44444 9.61733 8.44444 9.56944V8.125C8.44444 8.07711 8.46347 8.03119 8.49733 7.99733C8.53119 7.96347 8.57711 7.94444 8.625 7.94444ZM6.63889 3.43056C6.63889 3.09548 6.50583 2.77411 6.26896 2.53711C6.03209 2.3001 5.7108 2.16686 5.37572 2.16667H3.93128C3.59607 2.16667 3.2746 2.29983 3.03757 2.53685C2.80055 2.77388 2.66739 3.09535 2.66739 3.43056V4.875C2.66739 5.57267 3.23289 6.13889 3.93128 6.13889H5.37572C5.71093 6.13889 6.0324 6.00573 6.26943 5.7687C6.50645 5.53168 6.63961 5.2102 6.63961 4.875L6.63889 3.43056ZM3.93056 3.25H5.375C5.42289 3.25 5.46881 3.26902 5.50267 3.30288C5.53653 3.33674 5.55556 3.38267 5.55556 3.43056V4.875C5.55556 4.92289 5.53653 4.96881 5.50267 5.00267C5.46881 5.03653 5.42289 5.05556 5.375 5.05556H3.93056C3.88267 5.05556 3.83674 5.03653 3.80288 5.00267C3.76902 4.96881 3.75 4.92289 3.75 4.875V3.43056C3.75 3.38267 3.76902 3.33674 3.80288 3.30288C3.83674 3.26902 3.88267 3.25 3.93056 3.25ZM11.3312 3.43056C11.3312 3.09548 11.1981 2.77411 10.9612 2.53711C10.7244 2.3001 10.4031 2.16686 10.068 2.16667H8.62356C8.28835 2.16667 7.96688 2.29983 7.72985 2.53685C7.49283 2.77388 7.35967 3.09535 7.35967 3.43056V4.875C7.35967 5.57267 7.92589 6.13889 8.62356 6.13889H10.068C10.4032 6.13889 10.7247 6.00573 10.9617 5.7687C11.1987 5.53168 11.3319 5.2102 11.3319 4.875L11.3312 3.43056ZM8.62283 3.25H10.0673C10.1152 3.25 10.1611 3.26902 10.1949 3.30288C10.2288 3.33674 10.2478 3.38267 10.2478 3.43056V4.875C10.2478 4.92289 10.2288 4.96881 10.1949 5.00267C10.1611 5.03653 10.1152 5.05556 10.0673 5.05556H8.62283C8.57495 5.05556 8.52902 5.03653 8.49516 5.00267C8.4613 4.96881 8.44228 4.92289 8.44228 4.875V3.43056C8.44228 3.38267 8.4613 3.33674 8.49516 3.30288C8.52902 3.26902 8.57495 3.25 8.62283 3.25ZM2.84722 0C2.2247 0 1.62767 0.247296 1.18749 0.687485C0.747296 1.12767 0.5 1.7247 0.5 2.34722V10.6528C0.5 11.2753 0.747296 11.8723 1.18749 12.3125C1.62767 12.7527 2.2247 13 2.84722 13H11.1528C11.7753 13 12.3723 12.7527 12.8125 12.3125C13.2527 11.8723 13.5 11.2753 13.5 10.6528V2.34722C13.5 1.7247 13.2527 1.12767 12.8125 0.687485C12.3723 0.247296 11.7753 0 11.1528 0H2.84722ZM1.58333 2.34722C1.58333 1.64956 2.14956 1.08333 2.84722 1.08333H11.1528C11.8504 1.08333 12.4167 1.64956 12.4167 2.34722V10.6528C12.4167 10.988 12.2835 11.3095 12.0465 11.5465C11.8095 11.7835 11.488 11.9167 11.1528 11.9167H2.84722C2.51202 11.9167 2.19054 11.7835 1.95352 11.5465C1.71649 11.3095 1.58333 10.988 1.58333 10.6528V2.34722Z" fill="black"/>
</svg>
